<svg
	width="24"
	height="24"
	viewBox="0 0 24 24"
	fill="none"
	xmlns="http://www.w3.org/2000/svg"
	style="box-shadow: 0px 4px 4px 0px rgba(0, 0, 0, 0.25)"
>
	<g id="SVGRepo_bgCarrier" stroke-width="0"></g>
	<g
		id="SVGRepo_tracerCarrier"
		stroke-linecap="round"
		stroke-linejoin="round"
	></g>
	<g id="SVGRepo_iconCarrier">
		<path
			fill-rule="evenodd"
			clip-rule="evenodd"
			d="M4 5C4 4.44772 4.44772 4 5 4H19C19.5523 4 20 4.44772 20 5C20 5.55228 19.5523 6 19 6H5C4.44772 6 4 5.55228 4 5ZM5 8H19C19.5523 8 20 8.44772 20 9C20 9.55229 19.5523 10 19 10H5C4.44772 10 4 9.55229 4 9C4 8.44772 4.44772 8 5 8ZM16 13C16.5523 13 17 13.4477 17 14C17 14.5523 16.5523 15 16 15H5C4.44771 15 4 14.5523 4 14C4 13.4477 4.44771 13 5 13H16ZM12 18C12.5523 18 13 18.4477 13 19C13 19.5523 12.5523 20 12 20H5C4.44772 20 4 19.5523 4 19C4 18.4477 4.44772 18 5 18H12Z"
			fill="black"
		></path>
	</g>
</svg>